# xmcd
#
# Track frame offsets: 
#        187
#        19005
#        37782
#        55420
#        72752
#        91932
#        113337
#        132360
#        147892
#        165897
#
# Disc length: 2464 seconds
#
# Revision: 2
# Processed by: cddbd v1.5.2PL0 Copyright (c) Steve Scherf et al.
# Submitted via: ExactAudioCopy v1.3
#
DISCID=72099e0a
DTITLE=トーマス．ハーデン．トリオ - ＪＡＺＺで聴く　モーツァルト
DYEAR=2005
DGENRE=Jazz
TTITLE0=モーツァルト：トルコ行進曲
TTITLE1=モーツァルト：交響曲41番「ジュピター」
TTITLE2=モーツァルト：アイネ．クライネ．ナハトムジーク
TTITLE3=モーツァルト：子守歌
TTITLE4=モーツァルト：ピアノ協奏曲第23番 K.488より
TTITLE5=モーツァルト：ドン．ジョバンニより「メヌエット」
TTITLE6=モーツァルト：交響曲40番第１楽章
TTITLE7=モーツァルト：きらきら星変奏曲より
TTITLE8=モーツァルト：アヴェ．ヴェルム．コルプス
TTITLE9=モーツァルト：魔笛より「パパゲーノのアリア」
EXTD=
EXTT0=
EXTT1=
EXTT2=
EXTT3=
EXTT4=
EXTT5=
EXTT6=
EXTT7=
EXTT8=
EXTT9=
PLAYORDER=
